<?xml version="1.0" encoding="utf-8"?>
<!-- Generator: Adobe Illustrator 16.0.0, SVG Export Plug-In . SVG Version: 6.00 Build 0)  -->
<!DOCTYPE svg PUBLIC "-//W3C//DTD SVG 1.1//EN" "http://www.w3.org/Graphics/SVG/1.1/DTD/svg11.dtd">
<svg version="1.1" id="Layer_1" xmlns="http://www.w3.org/2000/svg" xmlns:xlink="http://www.w3.org/1999/xlink" x="0px" y="0px"
	 width="250px" height="175px" viewBox="0 0 250 175" enable-background="new 0 0 250 175" xml:space="preserve">
<rect y="-0.001" fill="#1FA4B6" width="250" height="175.001"/>
<g>
	<circle fill="#F4C018" cx="125" cy="87.499" r="72.386"/>
	<g>
		<defs>
			<circle id="SVGID_1_" cx="125" cy="87.499" r="72.386"/>
		</defs>
		<clipPath id="SVGID_2_">
			<use xlink:href="#SVGID_1_"  overflow="visible"/>
		</clipPath>
		<g clip-path="url(#SVGID_2_)">
			<g>
				<path fill="#F2CAA5" d="M159.666,132.054C155,123.221,125,117.678,125,117.678s-30,5.543-34.666,14.376
					C86.885,144.312,84,159.887,84,159.887h41h41C166,159.887,164.052,143.187,159.666,132.054z"/>
				<path fill="#E4B692" d="M125,117.678c0,0,30,5.543,34.666,14.376c4.386,11.133,6.334,27.833,6.334,27.833h-41V117.678z"/>
				<rect x="116.833" y="99.72" fill="#F2CAA5" width="16.334" height="27.336"/>
				<rect x="125" y="99.72" fill="#E4B692" width="8.167" height="27.336"/>
				<path opacity="0.1" fill="#DDAD8D" d="M116.833,112.387c1.469,4.217,7.397,6.634,11.751,6.634c1.575,0,3.107-0.264,4.583-0.747
					V99.72h-16.334V112.387z"/>
				<path fill="#F2CAA5" d="M146,82.471c0-17.074-9.402-26.783-21-26.783s-21,9.709-21,26.783c0,22.966,9.402,30.917,21,30.917
					S146,104.479,146,82.471z"/>
				<path fill="#E4B692" d="M142.804,94.311c-3.807-0.398-6.377-4.5-5.732-9.156c0.637-4.66,4.242-8.12,8.051-7.724
					c3.805,0.396,6.371,4.496,5.729,9.156C150.212,91.247,146.61,94.704,142.804,94.311z"/>
				<path fill="#F2CAA5" d="M99.298,86.587c-0.643-4.66,1.924-8.76,5.727-9.156c3.811-0.396,7.416,3.063,8.055,7.724
					c0.643,4.656-1.93,8.758-5.734,9.156C103.538,94.704,99.937,91.247,99.298,86.587z"/>
				<path fill="#E4B692" d="M146,82.471c0-17.074-9.402-26.783-21-26.783v57.7C136.598,113.388,146,104.479,146,82.471z"/>
			</g>
			<path fill="#303030" d="M143.891,96.781c-1.13,3.176-3.041,6.994-6.494,6.994c-4.316,0-7.403-3.508-12.354-3.508
				c-0.014,0-0.027,0.002-0.041,0.002c-0.015,0-0.028-0.002-0.043-0.002c-4.95,0-8.036,3.508-12.354,3.508
				c-3.453,0-5.363-3.818-6.493-6.994l-0.978-6.118v7.321c0,0,1.641,8.622,4.79,10.705c2.565,2.279,10.938,6.183,15.033,6.183h0.001
				c0.014,0,0.028-0.002,0.043-0.002c0.014,0,0.028,0.002,0.041,0.002h0.002c4.096,0,12.469-3.903,15.033-6.183
				c3.149-2.083,4.79-10.705,4.79-10.705v-7.321L143.891,96.781z"/>
			<path fill="#303030" d="M114.831,58.954c0,0,3.9,15.787,25.632,23.773c-2.044-3.529-2.415-7.801-2.415-7.801
				s3.529,3.715,9.286,6.687c3.158-6.314,6.873-15.787-1.485-20.987C137.491,55.425,117.617,46.138,114.831,58.954z"/>
			<path fill="#303030" d="M107.588,81.428c0,0,1.613-18.023,8.328-22.01c-5.728-2.499-14.457,5.108-13.529,9.751
				C103.316,73.813,107.588,81.428,107.588,81.428z"/>
			<path fill="#F26426" d="M159.666,132.054c-2.726-5.158-14.082-9.191-23.065-11.656c-0.352,6.11-5.402,10.96-11.601,10.96
				s-11.249-4.85-11.601-10.96c-8.983,2.465-20.34,6.498-23.065,11.656C86.885,144.312,84,159.887,84,159.887h41h41
				C166,159.887,164.052,143.187,159.666,132.054z"/>
			<path opacity="0.2" fill="#E44125" d="M112.728,123.397c0.372,6.11,5.715,10.96,12.272,10.96s11.9-4.85,12.272-10.96
				c8.233,2.135,18.34,5.449,22.772,9.65c-0.124-0.336-0.25-0.668-0.379-0.994c-2.726-5.158-14.082-9.191-23.065-11.656
				c-0.352,6.11-5.402,10.96-11.601,10.96s-11.249-4.85-11.601-10.96c-8.983,2.465-20.34,6.498-23.065,11.656
				c-0.081,0.289-0.162,0.582-0.243,0.874C94.589,128.784,104.573,125.512,112.728,123.397z"/>
			<path fill="#E44125" d="M109.983,121.382c1.138,7.28,7.418,12.856,15.017,12.856s13.879-5.576,15.017-12.856
				c-1.161-0.352-2.307-0.68-3.416-0.984c-0.352,6.11-5.402,10.96-11.601,10.96s-11.249-4.85-11.601-10.96
				C112.29,120.702,111.145,121.03,109.983,121.382z"/>
			<path fill="#FFFFFF" d="M128.417,105.771c0,0-0.5-2.226-3.417-2.226c-2.667,0-3.417,2.226-3.417,2.226H128.417z"/>
		</g>
	</g>
</g>
</svg>
