<?xml version="1.0" encoding="utf-8"?>
<!-- Generator: Adobe Illustrator 16.0.0, SVG Export Plug-In . SVG Version: 6.00 Build 0)  -->
<!DOCTYPE svg PUBLIC "-//W3C//DTD SVG 1.1//EN" "http://www.w3.org/Graphics/SVG/1.1/DTD/svg11.dtd">
<svg version="1.1" id="Layer_1" xmlns="http://www.w3.org/2000/svg" xmlns:xlink="http://www.w3.org/1999/xlink" x="0px" y="0px"
	 width="250px" height="175px" viewBox="0 0 250 175" enable-background="new 0 0 250 175" xml:space="preserve">
<rect x="0" fill="#CCB2A3" width="250" height="175"/>
<g>
	<circle fill="#13B5B9" cx="125" cy="87.499" r="72.386"/>
	<g>
		<defs>
			<circle id="SVGID_1_" cx="125" cy="87.499" r="72.386"/>
		</defs>
		<clipPath id="SVGID_2_">
			<use xlink:href="#SVGID_1_"  overflow="visible"/>
		</clipPath>
		<g clip-path="url(#SVGID_2_)">
			<path fill="#F2CAA5" d="M159.585,132.053c-4.666-8.832-34.667-14.375-34.667-14.375s-30,5.543-34.666,14.375
				c-3.449,12.258-6.334,27.834-6.334,27.834h41h41C165.919,159.887,163.97,143.186,159.585,132.053z"/>
			<path fill="#E4B692" d="M124.918,117.678c0,0,30,5.543,34.667,14.375c4.385,11.133,6.334,27.834,6.334,27.834h-41V117.678z"/>
			<rect x="116.751" y="99.719" fill="#F2CAA5" width="16.333" height="27.336"/>
			<rect x="124.918" y="99.719" fill="#E4B692" width="8.167" height="27.336"/>
			<path opacity="0.1" fill="#DDAD8D" d="M116.751,112.387c1.469,4.217,7.397,6.633,11.751,6.633c1.574,0,3.107-0.264,4.582-0.746
				V99.719h-16.333V112.387z"/>
			<path fill="#F2CAA5" d="M145.919,82.471c0-17.074-9.402-26.783-21-26.783c-11.598,0-21,9.709-21,26.783s9.402,30.916,21,30.916
				C136.517,113.387,145.919,99.545,145.919,82.471z"/>
			<path fill="#E4B692" d="M142.722,94.309c-3.807-0.424-6.377-4.783-5.732-9.732c0.637-4.953,4.242-8.63,8.051-8.209
				c3.805,0.422,6.371,4.779,5.729,9.732C150.13,91.053,146.528,94.727,142.722,94.309z"/>
			<path fill="#F2CAA5" d="M99.216,86.1c-0.643-4.953,1.924-9.311,5.727-9.732c3.811-0.421,7.416,3.256,8.055,8.209
				c0.643,4.949-1.93,9.309-5.734,9.732C103.457,94.727,99.855,91.053,99.216,86.1z"/>
			<path fill="#E4B692" d="M145.919,82.471c0-17.074-9.402-26.783-21-26.783v57.699C136.517,113.387,145.919,99.545,145.919,82.471z
				"/>
			<path fill="#0F303F" d="M114.984,105.928c0,0-9.057-7.381-7.044-17.107c2.012-9.726,7.044-11.402,7.044-15.765
				c8.385,10.064,15.767,17.104,29.183,13.417c4.025,2.348-1.006,14.426-7.045,20.799c17.109-9.393,36.898-43.942-4.361-57.361
				C91.501,36.492,79.763,103.916,114.984,105.928z"/>
			<path fill="#F26622" d="M124.917,66.272c10.839,0,19.845,7.834,21.677,18.147c0.225-1.26,0.348-2.554,0.348-3.877
				c0-12.163-9.861-22.024-22.025-22.024c-12.163,0-22.023,9.861-22.023,22.024c0,1.323,0.123,2.617,0.348,3.877
				C105.074,74.106,114.078,66.272,124.917,66.272z"/>
			<path fill="#F15A30" d="M108.9,121.689c2.938,1.574,9.807,4.855,16.018,4.855c8.167,0,18.845-4,18.845-4l-1.469-0.422
				c-3.342-1.09-6.662-1.994-9.498-2.699c-8.118,4.865-16.036,0.076-16.043,0.072C114.37,120.092,111.664,120.828,108.9,121.689z"/>
			<path fill="#1794A3" d="M159.585,132.053c-1.578-2.986-6.057-5.596-11.287-7.742c-2.889,10.195-12.258,17.67-23.379,17.67
				c-11.121,0-20.491-7.475-23.379-17.67c-5.231,2.146-9.709,4.756-11.287,7.742c-3.449,12.258-6.334,27.834-6.334,27.834h41h41
				C165.919,159.887,163.97,143.186,159.585,132.053z"/>
			<path fill="#F15A30" d="M172.554,116.232c-4.5-1.604-11.666,1.896-16.375,1.445c-5.145-0.494-7.93,3.002-11.094,2.367
				c-6.082-1.219-6.643,0.986-6.643,0.986s-1.471-2.986,4.613-2.012s10.734-1.932,12.123-3.807c2.102-2.834,9.125-2.166,9.125-2.166
				l-3.666-4.252c-2.582-0.5-6.416-0.166-8.5,3.418c-2.082,3.584-4,4-9.844,3.332c-5.846-0.666-9.498,3.879-9.498,3.879
				l11.051,3.217c0,0,2.279,0.621,4.613,0.561s4.775-2.463,9.656-2.094c5.23,0.396,9.98-2.145,16.133,0.154L172.554,116.232z"/>
		</g>
	</g>
</g>
</svg>
